<?xml version="1.0" standalone="no"?>
<!DOCTYPE svg PUBLIC "-//W3C//DTD SVG 20010904//EN"
 "http://www.w3.org/TR/2001/REC-SVG-20010904/DTD/svg10.dtd">
<svg version="1.0" xmlns="http://www.w3.org/2000/svg"
 width="256.000000pt" height="256.000000pt" viewBox="0 0 256.000000 256.000000"
 preserveAspectRatio="xMidYMid meet">
<metadata>
Created by potrace 1.11, written by Peter Selinger 2001-2013
</metadata>
<g transform="translate(0.000000,256.000000) scale(0.100000,-0.100000)"
fill="#000000" stroke="none">
<path d="M1180 2549 c-287 -23 -528 -127 -757 -326 -87 -76 -128 -129 -113
-148 6 -7 10 -26 8 -42 -2 -23 -8 -29 -35 -31 l-33 -3 0 -105 0 -104 120 0
121 0 -3 103 -3 102 -30 3 c-31 4 -45 17 -45 42 0 37 15 42 125 43 119 1 134
-6 121 -56 -5 -20 -13 -26 -39 -29 l-32 -3 -3 -267 -2 -268 35 0 c28 0 36 -4
41 -24 3 -14 3 -34 -1 -45 -6 -20 -14 -21 -114 -21 -112 0 -131 6 -131 45 0
29 19 45 52 45 l28 0 0 120 0 120 -120 0 -120 0 0 -120 c0 -119 0 -120 23
-120 29 0 47 -18 47 -46 0 -38 -21 -45 -130 -42 -113 3 -129 12 -116 61 5 23
12 27 41 27 l35 0 0 203 -1 202 -23 -45 c-13 -25 -38 -86 -54 -137 -130 -388
-61 -830 182 -1157 244 -330 615 -518 1026 -518 205 0 400 46 570 133 110 56
115 62 52 55 -44 -4 -56 -2 -72 14 -24 24 -26 67 -5 97 11 16 28 23 63 25 60
4 62 17 26 132 l-26 86 -159 0 -158 0 -31 -97 c-33 -106 -30 -123 21 -123 15
0 35 -7 43 -16 20 -20 21 -88 1 -104 -16 -13 -334 -18 -354 -5 -15 9 -14 98 1
113 7 7 29 12 50 12 29 0 41 6 53 24 17 25 245 753 245 780 0 12 -17 16 -87
18 l-88 3 -9 37 c-7 29 -6 42 8 62 l16 26 159 0 c156 0 160 -1 190 -25 37 -32
36 -29 180 -496 65 -212 124 -396 130 -408 7 -11 18 -21 25 -21 18 0 114 104
186 201 238 321 307 767 178 1152 -39 119 -62 163 -88 170 -15 4 -20 13 -20
37 0 18 -10 50 -22 71 l-22 39 -103 0 -103 0 0 -110 0 -111 63 3 62 3 0 40 c0
40 0 40 39 40 l40 0 1 -124 c1 -117 0 -124 -21 -133 -15 -7 -28 -6 -43 2 -18
9 -22 19 -19 48 l3 37 -62 3 -63 3 0 -121 0 -120 130 0 129 0 3 63 3 62 37 3
c33 3 38 0 44 -22 3 -14 3 -29 1 -34 -3 -4 -2 -35 2 -68 14 -99 28 -94 -260
-94 l-249 0 -12 26 c-15 33 -1 57 38 64 l29 5 3 263 2 262 -30 6 c-38 8 -54
28 -46 59 l6 24 157 3 157 3 -80 81 c-269 275 -637 414 -1014 383z m53 -476
c3 -5 2 -55 -2 -113 l-6 -105 -40 0 -40 0 -3 73 -3 72 -124 0 -125 0 0 -110 0
-111 63 3 62 3 0 40 c0 40 0 40 40 40 l40 0 0 -124 c0 -117 -1 -124 -21 -133
-15 -7 -28 -6 -43 2 -18 9 -22 19 -19 48 l3 37 -62 3 -63 3 0 -121 0 -120 130
0 129 0 3 63 3 62 37 3 c28 2 38 -1 42 -15 8 -29 11 -178 2 -191 -5 -9 -71
-12 -256 -12 -244 0 -250 0 -261 21 -16 31 3 67 38 71 l28 3 3 262 2 263 -27
6 c-51 12 -69 44 -41 72 14 14 503 18 511 5z m534 -19 c50 -37 75 -96 76 -178
0 -88 -25 -149 -78 -185 -35 -23 -35 -24 -15 -38 24 -17 63 -91 79 -150 11
-38 14 -42 48 -45 45 -4 61 -26 45 -62 -11 -25 -15 -26 -91 -26 -89 0 -79 -10
-96 94 -10 59 -43 122 -81 156 -31 27 -42 30 -99 30 l-65 0 0 -94 0 -95 41 -3
c46 -3 63 -26 48 -65 -8 -22 -13 -23 -133 -23 -125 0 -126 0 -132 24 -11 47
-2 61 44 64 l42 3 0 264 0 265 -22 4 c-13 3 -32 7 -43 8 -12 2 -21 12 -23 26
-8 54 -9 53 217 50 194 -3 212 -5 238 -24z m-1067 -794 c15 -28 12 -77 -6 -94
-8 -9 -27 -16 -40 -16 -14 0 -34 -5 -45 -10 -18 -10 -19 -25 -19 -334 0 -367
5 -402 65 -455 39 -34 85 -46 167 -44 76 2 134 34 162 88 20 38 21 58 24 389
2 278 0 351 -10 357 -7 5 -32 9 -55 9 -46 0 -63 17 -63 65 0 62 3 63 187 61
167 -2 168 -2 180 -26 7 -14 11 -36 8 -50 -7 -32 -41 -61 -62 -53 -39 15 -43
-15 -43 -368 0 -313 -1 -342 -21 -404 -26 -86 -89 -153 -170 -181 -75 -26
-233 -26 -308 0 -70 24 -141 90 -172 159 -24 51 -24 58 -27 412 -2 237 -7 364
-14 372 -6 7 -25 13 -42 13 -18 0 -37 5 -44 12 -14 14 -16 90 -2 104 5 5 82
10 175 11 151 1 166 -1 175 -17z"/>
<path d="M1490 1870 l0 -130 95 0 c89 0 96 2 125 28 40 35 51 118 23 172 -23
44 -63 59 -165 59 l-78 1 0 -130z"/>
<path d="M1672 872 c-29 -92 -52 -171 -52 -175 0 -4 50 -7 111 -7 84 0 110 3
107 13 -2 6 -26 85 -54 174 -27 90 -52 163 -55 163 -3 0 -29 -76 -57 -168z"/>
</g>
</svg>
